<?xml version="1.0" standalone="no"?>
<!DOCTYPE svg PUBLIC "-//W3C//DTD SVG 20010904//EN"
 "http://www.w3.org/TR/2001/REC-SVG-20010904/DTD/svg10.dtd">
<svg version="1.0" xmlns="http://www.w3.org/2000/svg"
 width="1584.000000pt" height="396.000000pt" viewBox="0 0 1584.000000 396.000000"
 preserveAspectRatio="xMidYMid meet">

<g transform="translate(0.000000,396.000000) scale(0.100000,-0.100000)"
fill="#51942A" stroke="none">
<path d="M6910 1900 l0 -560 76 0 76 0 -4 195 -3 195 51 0 51 0 132 -195 132
-195 80 0 c43 0 79 2 79 4 0 8 -270 390 -293 414 l-22 23 21 17 c11 9 78 86
148 170 l127 152 -84 0 -83 0 -119 -145 -119 -145 -50 0 -51 0 3 315 3 315
-75 0 -76 0 0 -560z"/>
<path d="M4200 2375 l0 -65 175 0 175 0 0 -485 0 -485 75 0 75 0 0 485 0 485
175 0 175 0 0 65 0 65 -425 0 -425 0 0 -65z"/>
<path d="M7998 2423 c-8 -10 -90 -252 -183 -538 -93 -286 -171 -526 -173 -532
-3 -10 15 -13 72 -13 l75 0 40 128 c22 70 45 146 52 170 l12 42 225 -2 225 -3
51 -167 51 -168 76 0 77 0 -30 93 c-170 531 -323 984 -336 995 -10 8 -51 12
-117 12 -85 0 -104 -3 -117 -17z m224 -353 c43 -140 78 -256 78 -257 0 -2 -81
-3 -180 -3 -99 0 -180 3 -180 8 0 4 35 121 77 260 75 244 79 253 102 250 23
-3 30 -21 103 -258z"/>
<path d="M11507 2418 c-22 -35 -607 -1167 -607 -1173 0 -3 25 -5 56 -3 l55 3
195 375 c107 206 247 475 310 598 l115 222 -55 0 c-47 0 -58 -4 -69 -22z"/>
<path d="M3722 2011 l-322 -136 2 -58 3 -59 320 -133 320 -133 3 51 c2 27 0
53 -5 58 -4 4 -119 52 -254 106 -136 54 -248 103 -250 108 -2 6 111 57 251
114 140 58 256 106 258 107 2 1 2 26 0 56 l-3 54 -323 -135z"/>
<path d="M11790 2092 l0 -57 258 -105 c141 -58 255 -109 253 -115 -2 -5 -114
-54 -250 -108 -135 -54 -250 -102 -254 -106 -5 -5 -7 -31 -5 -59 l3 -50 320
133 320 134 3 58 2 58 -172 72 c-95 39 -242 101 -325 137 l-153 64 0 -56z"/>
<path d="M5421 2130 c-87 -9 -202 -27 -206 -32 -1 -2 0 -25 3 -52 l4 -48 118
7 c332 20 370 7 370 -127 l0 -56 -197 -4 c-189 -3 -200 -4 -243 -28 -31 -17
-52 -39 -68 -70 -21 -40 -23 -56 -20 -151 3 -95 6 -110 30 -146 40 -61 103
-88 203 -88 102 0 168 23 250 85 l64 48 8 -61 8 -62 58 -3 58 -3 -3 318 -3
319 -26 49 c-49 96 -170 127 -408 105z m289 -495 l0 -75 -46 -33 c-66 -48
-137 -72 -217 -72 -63 0 -71 2 -93 28 -21 24 -24 38 -24 103 0 66 3 78 25 99
24 25 27 25 190 25 l165 0 0 -75z"/>
<path d="M6238 2130 c-138 -22 -191 -95 -175 -246 12 -116 61 -151 298 -210
81 -20 161 -45 178 -55 30 -18 32 -22 29 -71 -3 -42 -8 -54 -31 -72 -26 -20
-43 -21 -242 -24 l-213 -3 -4 -49 c-3 -42 0 -50 17 -55 11 -3 101 -8 200 -12
264 -8 349 13 393 97 29 58 30 166 3 227 -27 58 -79 85 -249 128 -221 55 -242
67 -242 134 0 48 16 78 47 86 15 4 119 7 229 6 l202 -1 7 46 c3 25 4 48 2 51
-19 19 -362 36 -449 23z"/>
<path d="M9150 2133 c-74 -11 -234 -89 -256 -124 -13 -22 -24 -6 -24 35 0 71
-4 76 -71 76 l-59 0 0 -545 0 -545 75 0 75 0 0 185 c0 102 2 185 5 185 3 0 25
-10 48 -22 64 -32 134 -48 221 -48 101 0 146 14 201 62 69 61 87 121 93 299 4
159 -4 224 -42 304 -50 108 -145 158 -266 138z m75 -137 c22 -10 42 -29 57
-58 21 -40 23 -55 23 -208 0 -147 -2 -169 -20 -199 -36 -62 -66 -76 -158 -76
-45 0 -117 8 -159 18 l-78 18 0 204 0 204 28 19 c34 24 129 72 162 83 41 12
108 10 145 -5z"/>
<path d="M10054 2126 c-72 -17 -150 -54 -197 -96 -19 -16 -37 -30 -40 -30 -3
0 -9 27 -13 60 l-7 60 -58 0 -59 0 0 -545 0 -545 70 0 70 0 0 186 c0 145 3
185 13 181 142 -63 137 -62 262 -62 110 0 124 2 165 25 55 31 104 101 120 172
18 81 24 244 11 328 -13 81 -49 171 -84 208 -55 59 -150 81 -253 58z m130
-145 c47 -44 61 -102 61 -251 0 -157 -16 -215 -68 -252 -27 -20 -44 -23 -117
-22 -47 0 -120 8 -162 18 l-78 18 0 202 0 201 53 35 c90 59 154 81 224 77 49
-2 68 -8 87 -26z"/>
</g>
</svg>
